{"title":"31 North 62 East 2009 DvDRip Ac3 Feel-Free","uid":5936369,"size":1049091257,"categoryP":"video","categoryS":"movies","magnet":"?xt=urn:btih:4df7d93110094c90b6ebe02253091ca0ab571877&amp;dn=31+North+62+East+2009+DvDRip+Ac3+Feel-Free&amp;tr=udp%3A%2F%2Ftracker.openbittorrent.com%3A80&amp;tr=udp%3A%2F%2Fopen.demonii.com%3A1337&amp;tr=udp%3A%2F%2Ftracker.coppersurfer.tk%3A6969&amp;tr=udp%3A%2F%2Fexodus.desync.com%3A6969","seeders":1,"leechers":2,"uploader":"neon","files":-1,"time":1288979835,"description":"Genre:Thriller\nLanguage:English\n &lt;a href=&quot; http://www.imdb.com/title/tt1235404/&quot; rel=&quot;nofollow&quot; target=&quot;_NEW&quot;&gt; http://www.imdb.com/title/tt1235404/&lt;/a&gt;\nSource:DVD\n\nGeneral\nComplete name :31 North 62 East 2009 DvDRip Ac3 Feel-Free\nFormat : AVI\nFormat/Info : Audio Video Interleave\nFile size : 999 MiB\nDuration : 1h 39mn\nOverall bit rate : 1 403 Kbps\nVideo #0\nCodec ID : XVID\nCodec ID/Hint : XviD\nDuration : 1h 39mn\nBit rate : 946 Kbps\nWidth : 652 pixels\nHeight : 352 pixels\nDisplay aspect ratio : 1.852\nFrame rate : 25.000 fps\nResolution : 24 bits\nColorimetry : 4:2:0\nScan type : Progressive\nBits/(Pixel*Frame) : 0.165\nStream size : 673 MiB (67%)\nWriting library : XviD 1.2.1 (UTC 2008-12-04)\nAudio #1\nID : 1\nFormat : AC-3\nFormat/Info : Audio Coding 3\nCodec ID : 2000\nDuration : 1h 39mn\nBit rate mode : Constant\nBit rate : 448 Kbps\nChannel(s) : 6 channels\nChannel positions : Front: L C R, Surround: L R, LFE\nSampling rate : 48.0 KHz\nStream size : 319 MiB (32%)\nAlignment : Split accross interleaves\nInterleave, duration : 40 ms (1.00 video frame)\nInterleave, preload duration : 500 ms\n\nPlot:\nA psychological thriller about how an elite SAS unit's position, is revealed by the British Prime Minister; to ensure an arms deal goes ahead and to secure his re-election.\n\n","torrent":{"xt":"urn:btih:4df7d93110094c90b6ebe02253091ca0ab571877","amp;dn":"31+North+62+East+2009+DvDRip+Ac3+Feel-Free","amp;tr":["udp%3A%2F%2Ftracker.openbittorrent.com%3A80","udp%3A%2F%2Fopen.demonii.com%3A1337","udp%3A%2F%2Ftracker.coppersurfer.tk%3A6969","udp%3A%2F%2Fexodus.desync.com%3A6969"],"infoHash":"4df7d93110094c90b6ebe02253091ca0ab571877","infoHashBuffer":{"type":"Buffer","data":[77,247,217,49,16,9,76,144,182,235,224,34,83,9,28,160,171,87,24,119]},"announce":[],"urlList":[]}}